<mxfile host="app.diagrams.net" agent="Mozilla/5.0 (Windows NT 10.0; Win64; x64) AppleWebKit/537.36 (KHTML, like Gecko) Chrome/131.0.0.0 Safari/537.36" version="25.0.3">
  <diagram id="C5RBs43oDa-KdzZeNtuy" name="Page-1">
    <mxGraphModel dx="3520" dy="2112" grid="1" gridSize="10" guides="1" tooltips="1" connect="1" arrows="1" fold="1" page="1" pageScale="1" pageWidth="1169" pageHeight="1654" background="none" math="0" shadow="0">
      <root>
        <mxCell id="WIyWlLk6GJQsqaUBKTNV-0" />
        <mxCell id="WIyWlLk6GJQsqaUBKTNV-1" parent="WIyWlLk6GJQsqaUBKTNV-0" />
        <mxCell id="ebi2hEIJfH_Nfivxj9Tv-2" value="" style="edgeStyle=none;curved=1;rounded=0;orthogonalLoop=1;jettySize=auto;html=1;fontSize=12;startSize=8;endSize=8;" edge="1" parent="WIyWlLk6GJQsqaUBKTNV-1" source="ebi2hEIJfH_Nfivxj9Tv-0" target="ebi2hEIJfH_Nfivxj9Tv-1">
          <mxGeometry relative="1" as="geometry" />
        </mxCell>
        <mxCell id="ebi2hEIJfH_Nfivxj9Tv-0" value="INICIO" style="ellipse;whiteSpace=wrap;html=1;aspect=fixed;fillColor=#ffe6cc;strokeColor=#d79b00;" vertex="1" parent="WIyWlLk6GJQsqaUBKTNV-1">
          <mxGeometry x="280" y="40" width="60" height="60" as="geometry" />
        </mxCell>
        <mxCell id="ebi2hEIJfH_Nfivxj9Tv-4" value="" style="edgeStyle=none;curved=1;rounded=0;orthogonalLoop=1;jettySize=auto;html=1;fontSize=12;startSize=8;endSize=8;" edge="1" parent="WIyWlLk6GJQsqaUBKTNV-1" source="ebi2hEIJfH_Nfivxj9Tv-1" target="ebi2hEIJfH_Nfivxj9Tv-3">
          <mxGeometry relative="1" as="geometry" />
        </mxCell>
        <mxCell id="ebi2hEIJfH_Nfivxj9Tv-1" value="&lt;div&gt;Definir tipo de cambio de EUR a ARS = 1069,90&lt;/div&gt;&lt;div&gt;&lt;span style=&quot;background-color: initial;&quot;&gt;Definir tipo de cambio de USD a ARS = 1018,23&lt;/span&gt;&lt;/div&gt;" style="rounded=1;whiteSpace=wrap;html=1;fillColor=#e1d5e7;strokeColor=#9673a6;" vertex="1" parent="WIyWlLk6GJQsqaUBKTNV-1">
          <mxGeometry x="180" y="130" width="260" height="60" as="geometry" />
        </mxCell>
        <mxCell id="ebi2hEIJfH_Nfivxj9Tv-6" value="" style="edgeStyle=none;curved=1;rounded=0;orthogonalLoop=1;jettySize=auto;html=1;fontSize=12;startSize=8;endSize=8;" edge="1" parent="WIyWlLk6GJQsqaUBKTNV-1" source="ebi2hEIJfH_Nfivxj9Tv-3" target="ebi2hEIJfH_Nfivxj9Tv-5">
          <mxGeometry relative="1" as="geometry" />
        </mxCell>
        <mxCell id="ebi2hEIJfH_Nfivxj9Tv-3" value="Mostrar mensaje: &quot;Ingrese la moneda origen para la conversión (EUR/USD): &quot;" style="shape=parallelogram;perimeter=parallelogramPerimeter;whiteSpace=wrap;html=1;fixedSize=1;rounded=1;fillColor=#e3c800;fontColor=#000000;strokeColor=#B09500;" vertex="1" parent="WIyWlLk6GJQsqaUBKTNV-1">
          <mxGeometry x="120" y="230" width="380" height="60" as="geometry" />
        </mxCell>
        <mxCell id="ebi2hEIJfH_Nfivxj9Tv-8" value="" style="edgeStyle=none;curved=1;rounded=0;orthogonalLoop=1;jettySize=auto;html=1;fontSize=12;startSize=8;endSize=8;" edge="1" parent="WIyWlLk6GJQsqaUBKTNV-1" source="ebi2hEIJfH_Nfivxj9Tv-5" target="ebi2hEIJfH_Nfivxj9Tv-7">
          <mxGeometry relative="1" as="geometry" />
        </mxCell>
        <mxCell id="ebi2hEIJfH_Nfivxj9Tv-5" value="Mostrar mensaje: &quot;Ingrese el monto a convertir: &quot;" style="shape=parallelogram;perimeter=parallelogramPerimeter;whiteSpace=wrap;html=1;fixedSize=1;rounded=1;fillColor=#e3c800;fontColor=#000000;strokeColor=#B09500;" vertex="1" parent="WIyWlLk6GJQsqaUBKTNV-1">
          <mxGeometry x="150" y="330" width="320" height="40" as="geometry" />
        </mxCell>
        <mxCell id="ebi2hEIJfH_Nfivxj9Tv-10" value="" style="edgeStyle=none;curved=1;rounded=0;orthogonalLoop=1;jettySize=auto;html=1;fontSize=12;startSize=8;endSize=8;" edge="1" parent="WIyWlLk6GJQsqaUBKTNV-1" source="ebi2hEIJfH_Nfivxj9Tv-7" target="ebi2hEIJfH_Nfivxj9Tv-9">
          <mxGeometry relative="1" as="geometry" />
        </mxCell>
        <mxCell id="ebi2hEIJfH_Nfivxj9Tv-26" value="SI" style="edgeLabel;html=1;align=center;verticalAlign=middle;resizable=0;points=[];fontSize=12;" vertex="1" connectable="0" parent="ebi2hEIJfH_Nfivxj9Tv-10">
          <mxGeometry x="-0.4" y="-1" relative="1" as="geometry">
            <mxPoint as="offset" />
          </mxGeometry>
        </mxCell>
        <mxCell id="ebi2hEIJfH_Nfivxj9Tv-24" value="" style="edgeStyle=none;curved=1;rounded=0;orthogonalLoop=1;jettySize=auto;html=1;fontSize=12;startSize=8;endSize=8;" edge="1" parent="WIyWlLk6GJQsqaUBKTNV-1" source="ebi2hEIJfH_Nfivxj9Tv-7" target="ebi2hEIJfH_Nfivxj9Tv-20">
          <mxGeometry relative="1" as="geometry" />
        </mxCell>
        <mxCell id="ebi2hEIJfH_Nfivxj9Tv-25" value="NO" style="edgeLabel;html=1;align=center;verticalAlign=middle;resizable=0;points=[];fontSize=12;" vertex="1" connectable="0" parent="ebi2hEIJfH_Nfivxj9Tv-24">
          <mxGeometry x="-0.2667" y="-4" relative="1" as="geometry">
            <mxPoint as="offset" />
          </mxGeometry>
        </mxCell>
        <mxCell id="ebi2hEIJfH_Nfivxj9Tv-7" value="Si tipo_conversion == EUR" style="rhombus;whiteSpace=wrap;html=1;rounded=1;fillColor=#e51400;fontColor=#ffffff;strokeColor=#B20000;" vertex="1" parent="WIyWlLk6GJQsqaUBKTNV-1">
          <mxGeometry x="200" y="410" width="220" height="80" as="geometry" />
        </mxCell>
        <mxCell id="ebi2hEIJfH_Nfivxj9Tv-12" value="" style="edgeStyle=none;curved=1;rounded=0;orthogonalLoop=1;jettySize=auto;html=1;fontSize=12;startSize=8;endSize=8;" edge="1" parent="WIyWlLk6GJQsqaUBKTNV-1" source="ebi2hEIJfH_Nfivxj9Tv-9" target="ebi2hEIJfH_Nfivxj9Tv-11">
          <mxGeometry relative="1" as="geometry" />
        </mxCell>
        <mxCell id="ebi2hEIJfH_Nfivxj9Tv-9" value="Calcular resultado Monto a convertir y Tipo de cambio EUR" style="rounded=1;whiteSpace=wrap;html=1;fillColor=#e1d5e7;strokeColor=#9673a6;" vertex="1" parent="WIyWlLk6GJQsqaUBKTNV-1">
          <mxGeometry x="491.3" y="420" width="120" height="60" as="geometry" />
        </mxCell>
        <mxCell id="ebi2hEIJfH_Nfivxj9Tv-11" value="&quot;El resultado de la conversión de Euro a Peso Argentinos es: &quot;" style="shape=parallelogram;perimeter=parallelogramPerimeter;whiteSpace=wrap;html=1;fixedSize=1;rounded=1;fillColor=#e3c800;fontColor=#000000;strokeColor=#B09500;" vertex="1" parent="WIyWlLk6GJQsqaUBKTNV-1">
          <mxGeometry x="650" y="407.5" width="140" height="85" as="geometry" />
        </mxCell>
        <mxCell id="ebi2hEIJfH_Nfivxj9Tv-19" value="" style="edgeStyle=none;curved=1;rounded=0;orthogonalLoop=1;jettySize=auto;html=1;fontSize=12;startSize=8;endSize=8;" edge="1" source="ebi2hEIJfH_Nfivxj9Tv-20" target="ebi2hEIJfH_Nfivxj9Tv-22" parent="WIyWlLk6GJQsqaUBKTNV-1">
          <mxGeometry relative="1" as="geometry" />
        </mxCell>
        <mxCell id="ebi2hEIJfH_Nfivxj9Tv-28" value="" style="edgeStyle=none;curved=1;rounded=0;orthogonalLoop=1;jettySize=auto;html=1;fontSize=12;startSize=8;endSize=8;" edge="1" parent="WIyWlLk6GJQsqaUBKTNV-1" source="ebi2hEIJfH_Nfivxj9Tv-20" target="ebi2hEIJfH_Nfivxj9Tv-27">
          <mxGeometry relative="1" as="geometry" />
        </mxCell>
        <mxCell id="ebi2hEIJfH_Nfivxj9Tv-29" value="NO" style="edgeLabel;html=1;align=center;verticalAlign=middle;resizable=0;points=[];fontSize=12;" vertex="1" connectable="0" parent="ebi2hEIJfH_Nfivxj9Tv-28">
          <mxGeometry x="-0.2249" y="1" relative="1" as="geometry">
            <mxPoint as="offset" />
          </mxGeometry>
        </mxCell>
        <mxCell id="ebi2hEIJfH_Nfivxj9Tv-20" value="Si tipo_conversion == USD" style="rhombus;whiteSpace=wrap;html=1;rounded=1;fillColor=#e51400;fontColor=#ffffff;strokeColor=#B20000;" vertex="1" parent="WIyWlLk6GJQsqaUBKTNV-1">
          <mxGeometry x="200" y="536.2" width="220" height="80" as="geometry" />
        </mxCell>
        <mxCell id="ebi2hEIJfH_Nfivxj9Tv-21" value="" style="edgeStyle=none;curved=1;rounded=0;orthogonalLoop=1;jettySize=auto;html=1;fontSize=12;startSize=8;endSize=8;" edge="1" source="ebi2hEIJfH_Nfivxj9Tv-22" parent="WIyWlLk6GJQsqaUBKTNV-1">
          <mxGeometry relative="1" as="geometry">
            <mxPoint x="660" y="576.2" as="targetPoint" />
          </mxGeometry>
        </mxCell>
        <mxCell id="ebi2hEIJfH_Nfivxj9Tv-22" value="Calcular resultado Monto a convertir y Tipo de cambio USD" style="rounded=1;whiteSpace=wrap;html=1;fillColor=#e1d5e7;strokeColor=#9673a6;" vertex="1" parent="WIyWlLk6GJQsqaUBKTNV-1">
          <mxGeometry x="491.3" y="546.2" width="120" height="60" as="geometry" />
        </mxCell>
        <mxCell id="ebi2hEIJfH_Nfivxj9Tv-35" style="edgeStyle=none;curved=1;rounded=0;orthogonalLoop=1;jettySize=auto;html=1;exitX=1;exitY=0.5;exitDx=0;exitDy=0;fontSize=12;startSize=8;endSize=8;endArrow=none;endFill=0;" edge="1" parent="WIyWlLk6GJQsqaUBKTNV-1" source="ebi2hEIJfH_Nfivxj9Tv-23">
          <mxGeometry relative="1" as="geometry">
            <mxPoint x="810" y="576.6315789473686" as="targetPoint" />
          </mxGeometry>
        </mxCell>
        <mxCell id="ebi2hEIJfH_Nfivxj9Tv-23" value="&quot;El resultado de la conversión de DOLARa Peso Argentinos es: &quot;" style="shape=parallelogram;perimeter=parallelogramPerimeter;whiteSpace=wrap;html=1;fixedSize=1;rounded=1;fillColor=#e3c800;fontColor=#000000;strokeColor=#B09500;" vertex="1" parent="WIyWlLk6GJQsqaUBKTNV-1">
          <mxGeometry x="650" y="533.7" width="140" height="85" as="geometry" />
        </mxCell>
        <mxCell id="ebi2hEIJfH_Nfivxj9Tv-31" value="" style="edgeStyle=none;curved=1;rounded=0;orthogonalLoop=1;jettySize=auto;html=1;fontSize=12;startSize=8;endSize=8;" edge="1" parent="WIyWlLk6GJQsqaUBKTNV-1" source="ebi2hEIJfH_Nfivxj9Tv-27" target="ebi2hEIJfH_Nfivxj9Tv-30">
          <mxGeometry relative="1" as="geometry" />
        </mxCell>
        <mxCell id="ebi2hEIJfH_Nfivxj9Tv-27" value="&amp;nbsp;Mostrar mensaje: &quot;Tipo de conversión no válido&quot;" style="shape=parallelogram;perimeter=parallelogramPerimeter;whiteSpace=wrap;html=1;fixedSize=1;rounded=1;fillColor=#e3c800;fontColor=#000000;strokeColor=#B09500;" vertex="1" parent="WIyWlLk6GJQsqaUBKTNV-1">
          <mxGeometry x="210" y="660" width="200" height="60" as="geometry" />
        </mxCell>
        <mxCell id="ebi2hEIJfH_Nfivxj9Tv-30" value="FIN" style="ellipse;whiteSpace=wrap;html=1;rounded=1;fillColor=#ffe6cc;strokeColor=#d79b00;" vertex="1" parent="WIyWlLk6GJQsqaUBKTNV-1">
          <mxGeometry x="270" y="760" width="80" height="80" as="geometry" />
        </mxCell>
        <mxCell id="ebi2hEIJfH_Nfivxj9Tv-33" value="" style="endArrow=classic;html=1;rounded=0;fontSize=12;startSize=8;endSize=8;entryX=1;entryY=0.5;entryDx=0;entryDy=0;exitX=1;exitY=0.5;exitDx=0;exitDy=0;strokeColor=default;flowAnimation=0;shadow=0;edgeStyle=orthogonalEdgeStyle;" edge="1" parent="WIyWlLk6GJQsqaUBKTNV-1" source="ebi2hEIJfH_Nfivxj9Tv-11" target="ebi2hEIJfH_Nfivxj9Tv-30">
          <mxGeometry width="50" height="50" relative="1" as="geometry">
            <mxPoint x="460" y="630" as="sourcePoint" />
            <mxPoint x="510" y="580" as="targetPoint" />
            <Array as="points">
              <mxPoint x="810" y="450" />
              <mxPoint x="810" y="800" />
            </Array>
          </mxGeometry>
        </mxCell>
      </root>
    </mxGraphModel>
  </diagram>
</mxfile>
